{
 "cells": [
  {
   "attachments": {},
   "cell_type": "markdown",
   "metadata": {},
   "source": [
    "## Audio based Speaker identification using embeddings "
   ]
  },
  {
   "cell_type": "code",
   "execution_count": 1,
   "metadata": {},
   "outputs": [
    {
     "name": "stderr",
     "output_type": "stream",
     "text": [
      "/home/easgrad/ninadnar/miniconda3/envs/bio1/lib/python3.11/site-packages/tqdm/auto.py:21: TqdmWarning: IProgress not found. Please update jupyter and ipywidgets. See https://ipywidgets.readthedocs.io/en/stable/user_install.html\n",
      "  from .autonotebook import tqdm as notebook_tqdm\n"
     ]
    }
   ],
   "source": [
    "from pyannote.audio import Model\n",
    "from pyannote.audio import Inference\n",
    "from scipy.spatial.distance import cdist\n",
    "import os"
   ]
  },
  {
   "cell_type": "code",
   "execution_count": 2,
   "metadata": {},
   "outputs": [
    {
     "name": "stderr",
     "output_type": "stream",
     "text": [
      "Lightning automatically upgraded your loaded checkpoint from v1.2.7 to v2.0.2. To apply the upgrade to your files permanently, run `python -m pytorch_lightning.utilities.upgrade_checkpoint --file ../.cache/torch/pyannote/models--pyannote--embedding/snapshots/20b2db779562a3141f5eadd34a0232dbcd56d620/pytorch_model.bin`\n",
      "Lightning automatically upgraded your loaded checkpoint from v1.2.7 to v2.0.2. To apply the upgrade to your files permanently, run `python -m pytorch_lightning.utilities.upgrade_checkpoint --file ../.cache/torch/pyannote/models--pyannote--embedding/snapshots/20b2db779562a3141f5eadd34a0232dbcd56d620/pytorch_model.bin`\n"
     ]
    },
    {
     "name": "stdout",
     "output_type": "stream",
     "text": [
      "Model was trained with pyannote.audio 0.0.1, yours is 2.1.1. Bad things might happen unless you revert pyannote.audio to 0.x.\n",
      "Model was trained with torch 1.8.1+cu102, yours is 2.0.1. Bad things might happen unless you revert torch to 1.x.\n",
      "Model was trained with pyannote.audio 0.0.1, yours is 2.1.1. Bad things might happen unless you revert pyannote.audio to 0.x.\n",
      "Model was trained with torch 1.8.1+cu102, yours is 2.0.1. Bad things might happen unless you revert torch to 1.x.\n"
     ]
    }
   ],
   "source": [
    "model = Model.from_pretrained(\"pyannote/embedding\", use_auth_token=\"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\")\n",
    "inference = Inference(model, window=\"whole\")"
   ]
  },
  {
   "attachments": {},
   "cell_type": "markdown",
   "metadata": {},
   "source": [
    "# Embedding matching \n",
    "In VIDTIMIT dataset, sa1 file includes audio of 43 people saying following sentence \n",
    "\"She had your dark suitin greasy wash water all year\""
   ]
  },
  {
   "attachments": {},
   "cell_type": "markdown",
   "metadata": {},
   "source": [
    "Test code for calculating embedding of same speaker"
   ]
  },
  {
   "cell_type": "code",
   "execution_count": 36,
   "metadata": {},
   "outputs": [
    {
     "data": {
      "text/plain": [
       "array([[0.91288073]])"
      ]
     },
     "execution_count": 36,
     "metadata": {},
     "output_type": "execute_result"
    }
   ],
   "source": [
    "path_1 = \"VIDTIMIT/fadg0/audio/sa1.wav\"\n",
    "path_2 = \"VIDTIMIT/mdab0/audio/sa2.wav\"\n",
    "\n",
    "embedding1 = inference(path_1)\n",
    "embedding2 = inference(path_2)\n",
    "\n",
    "embedding1 = embedding1.reshape(1,512)\n",
    "embedding2 = embedding2.reshape(1,512)\n",
    "\n",
    "distance = cdist(embedding1, embedding2, metric=\"cosine\")\n",
    "distance"
   ]
  },
  {
   "cell_type": "code",
   "execution_count": 3,
   "metadata": {},
   "outputs": [
    {
     "name": "stderr",
     "output_type": "stream",
     "text": [
      "ffmpeg version 4.3 Copyright (c) 2000-2020 the FFmpeg developers\n",
      "  built with gcc 7.3.0 (crosstool-NG 1.23.0.449-a04d0)\n",
      "  configuration: --prefix=/opt/conda/conda-bld/ffmpeg_1597178665428/_h_env_placehold_placehold_placehold_placehold_placehold_placehold_placehold_placehold_placehold_placehold_placehold_placehold_placehold_placehold_placehold_placehold_placehold_placehold_placehold_placehold_placeh --cc=/opt/conda/conda-bld/ffmpeg_1597178665428/_build_env/bin/x86_64-conda_cos6-linux-gnu-cc --disable-doc --disable-openssl --enable-avresample --enable-gnutls --enable-hardcoded-tables --enable-libfreetype --enable-libopenh264 --enable-pic --enable-pthreads --enable-shared --disable-static --enable-version3 --enable-zlib --enable-libmp3lame\n",
      "  libavutil      56. 51.100 / 56. 51.100\n",
      "  libavcodec     58. 91.100 / 58. 91.100\n",
      "  libavformat    58. 45.100 / 58. 45.100\n",
      "  libavdevice    58. 10.100 / 58. 10.100\n",
      "  libavfilter     7. 85.100 /  7. 85.100\n",
      "  libavresample   4.  0.  0 /  4.  0.  0\n",
      "  libswscale      5.  7.100 /  5.  7.100\n",
      "  libswresample   3.  7.100 /  3.  7.100\n",
      "Input #0, mov,mp4,m4a,3gp,3g2,mj2, from 'dataset/tbd/test2.m4a':\n",
      "  Metadata:\n",
      "    major_brand     : M4A \n",
      "    minor_version   : 0\n",
      "    compatible_brands: M4A isommp42\n",
      "    creation_time   : 2023-07-04T02:16:12.000000Z\n",
      "    title           : test2\n",
      "    voice-memo-uuid : 2B5B5CA4-195E-47D6-B4EB-D862E7EFFED1\n",
      "    encoder         : com.apple.VoiceMemos (iPad Version 13.0.1 (Build 22A400))\n",
      "  Duration: 00:00:08.34, start: 0.000000, bitrate: 70 kb/s\n",
      "    Stream #0:0(und): Audio: aac (LC) (mp4a / 0x6134706D), 48000 Hz, mono, fltp, 64 kb/s (default)\n",
      "    Metadata:\n",
      "      creation_time   : 2023-07-04T02:16:12.000000Z\n",
      "      handler_name    : Core Media Audio\n",
      "Stream mapping:\n",
      "  Stream #0:0 -> #0:0 (aac (native) -> pcm_s16le (native))\n",
      "Press [q] to stop, [?] for help\n",
      "Output #0, wav, to 'dataset/tbd/n2.wav':\n",
      "  Metadata:\n",
      "    major_brand     : M4A \n",
      "    minor_version   : 0\n",
      "    compatible_brands: M4A isommp42\n",
      "    voice-memo-uuid : 2B5B5CA4-195E-47D6-B4EB-D862E7EFFED1\n",
      "    INAM            : test2\n",
      "    ISFT            : Lavf58.45.100\n",
      "    Stream #0:0(und): Audio: pcm_s16le ([1][0][0][0] / 0x0001), 44100 Hz, stereo, s16, 1411 kb/s (default)\n",
      "    Metadata:\n",
      "      creation_time   : 2023-07-04T02:16:12.000000Z\n",
      "      handler_name    : Core Media Audio\n",
      "      encoder         : Lavc58.91.100 pcm_s16le\n",
      "size=    1448kB time=00:00:08.40 bitrate=1411.3kbits/s speed= 566x    \n",
      "video:0kB audio:1448kB subtitle:0kB other streams:0kB global headers:0kB muxing overhead: 0.006205%\n",
      "ffmpeg version 4.3 Copyright (c) 2000-2020 the FFmpeg developers\n",
      "  built with gcc 7.3.0 (crosstool-NG 1.23.0.449-a04d0)\n",
      "  configuration: --prefix=/opt/conda/conda-bld/ffmpeg_1597178665428/_h_env_placehold_placehold_placehold_placehold_placehold_placehold_placehold_placehold_placehold_placehold_placehold_placehold_placehold_placehold_placehold_placehold_placehold_placehold_placehold_placehold_placeh --cc=/opt/conda/conda-bld/ffmpeg_1597178665428/_build_env/bin/x86_64-conda_cos6-linux-gnu-cc --disable-doc --disable-openssl --enable-avresample --enable-gnutls --enable-hardcoded-tables --enable-libfreetype --enable-libopenh264 --enable-pic --enable-pthreads --enable-shared --disable-static --enable-version3 --enable-zlib --enable-libmp3lame\n",
      "  libavutil      56. 51.100 / 56. 51.100\n",
      "  libavcodec     58. 91.100 / 58. 91.100\n",
      "  libavformat    58. 45.100 / 58. 45.100\n",
      "  libavdevice    58. 10.100 / 58. 10.100\n",
      "  libavfilter     7. 85.100 /  7. 85.100\n",
      "  libavresample   4.  0.  0 /  4.  0.  0\n",
      "  libswscale      5.  7.100 /  5.  7.100\n",
      "  libswresample   3.  7.100 /  3.  7.100\n",
      "Input #0, mov,mp4,m4a,3gp,3g2,mj2, from 'dataset/tbd/test1.m4a':\n",
      "  Metadata:\n",
      "    major_brand     : M4A \n",
      "    minor_version   : 0\n",
      "    compatible_brands: M4A isommp42\n",
      "    creation_time   : 2023-07-04T02:14:59.000000Z\n",
      "    title           : test1\n",
      "    voice-memo-uuid : 0C2696AC-B620-42B3-A355-9A1383921C21\n",
      "    encoder         : com.apple.VoiceMemos (iPad Version 13.0.1 (Build 22A400))\n",
      "  Duration: 00:00:07.71, start: 0.000000, bitrate: 70 kb/s\n",
      "    Stream #0:0(und): Audio: aac (LC) (mp4a / 0x6134706D), 48000 Hz, mono, fltp, 64 kb/s (default)\n",
      "    Metadata:\n",
      "      creation_time   : 2023-07-04T02:14:59.000000Z\n",
      "      handler_name    : Core Media Audio\n",
      "Stream mapping:\n",
      "  Stream #0:0 -> #0:0 (aac (native) -> pcm_s16le (native))\n",
      "Press [q] to stop, [?] for help\n",
      "Output #0, wav, to 'dataset/tbd/n1.wav':\n",
      "  Metadata:\n",
      "    major_brand     : M4A \n",
      "    minor_version   : 0\n",
      "    compatible_brands: M4A isommp42\n",
      "    voice-memo-uuid : 0C2696AC-B620-42B3-A355-9A1383921C21\n",
      "    INAM            : test1\n",
      "    ISFT            : Lavf58.45.100\n",
      "    Stream #0:0(und): Audio: pcm_s16le ([1][0][0][0] / 0x0001), 44100 Hz, stereo, s16, 1411 kb/s (default)\n",
      "    Metadata:\n",
      "      creation_time   : 2023-07-04T02:14:59.000000Z\n",
      "      handler_name    : Core Media Audio\n",
      "      encoder         : Lavc58.91.100 pcm_s16le\n",
      "size=    1338kB time=00:00:07.76 bitrate=1411.3kbits/s speed= 593x    \n",
      "video:0kB audio:1338kB subtitle:0kB other streams:0kB global headers:0kB muxing overhead: 0.006716%\n",
      "ffmpeg version 4.3 Copyright (c) 2000-2020 the FFmpeg developers\n",
      "  built with gcc 7.3.0 (crosstool-NG 1.23.0.449-a04d0)\n",
      "  configuration: --prefix=/opt/conda/conda-bld/ffmpeg_1597178665428/_h_env_placehold_placehold_placehold_placehold_placehold_placehold_placehold_placehold_placehold_placehold_placehold_placehold_placehold_placehold_placehold_placehold_placehold_placehold_placehold_placehold_placeh --cc=/opt/conda/conda-bld/ffmpeg_1597178665428/_build_env/bin/x86_64-conda_cos6-linux-gnu-cc --disable-doc --disable-openssl --enable-avresample --enable-gnutls --enable-hardcoded-tables --enable-libfreetype --enable-libopenh264 --enable-pic --enable-pthreads --enable-shared --disable-static --enable-version3 --enable-zlib --enable-libmp3lame\n",
      "  libavutil      56. 51.100 / 56. 51.100\n",
      "  libavcodec     58. 91.100 / 58. 91.100\n",
      "  libavformat    58. 45.100 / 58. 45.100\n",
      "  libavdevice    58. 10.100 / 58. 10.100\n",
      "  libavfilter     7. 85.100 /  7. 85.100\n",
      "  libavresample   4.  0.  0 /  4.  0.  0\n",
      "  libswscale      5.  7.100 /  5.  7.100\n",
      "  libswresample   3.  7.100 /  3.  7.100\n",
      "Input #0, mov,mp4,m4a,3gp,3g2,mj2, from 'dataset/tbd/akhil1.m4a':\n",
      "  Metadata:\n",
      "    major_brand     : M4A \n",
      "    minor_version   : 0\n",
      "    compatible_brands: M4A isommp42\n",
      "    creation_time   : 2023-07-04T03:38:23.000000Z\n",
      "    title           : akhil1\n",
      "    voice-memo-uuid : 40184158-CAB0-4E38-8402-19BAE526E9E6\n",
      "    encoder         : com.apple.VoiceMemos (iPad Version 13.0.1 (Build 22A400))\n",
      "  Duration: 00:00:08.13, start: 0.000000, bitrate: 68 kb/s\n",
      "    Stream #0:0(und): Audio: aac (LC) (mp4a / 0x6134706D), 48000 Hz, mono, fltp, 62 kb/s (default)\n",
      "    Metadata:\n",
      "      creation_time   : 2023-07-04T03:38:23.000000Z\n",
      "      handler_name    : Core Media Audio\n",
      "Stream mapping:\n",
      "  Stream #0:0 -> #0:0 (aac (native) -> pcm_s16le (native))\n",
      "Press [q] to stop, [?] for help\n",
      "Output #0, wav, to 'dataset/tbd/a1.wav':\n",
      "  Metadata:\n",
      "    major_brand     : M4A \n",
      "    minor_version   : 0\n",
      "    compatible_brands: M4A isommp42\n",
      "    voice-memo-uuid : 40184158-CAB0-4E38-8402-19BAE526E9E6\n",
      "    INAM            : akhil1\n",
      "    ISFT            : Lavf58.45.100\n",
      "    Stream #0:0(und): Audio: pcm_s16le ([1][0][0][0] / 0x0001), 44100 Hz, stereo, s16, 1411 kb/s (default)\n",
      "    Metadata:\n",
      "      creation_time   : 2023-07-04T03:38:23.000000Z\n",
      "      handler_name    : Core Media Audio\n",
      "      encoder         : Lavc58.91.100 pcm_s16le\n",
      "size=    1411kB time=00:00:08.19 bitrate=1411.3kbits/s speed= 618x    \n",
      "video:0kB audio:1411kB subtitle:0kB other streams:0kB global headers:0kB muxing overhead: 0.006505%\n",
      "ffmpeg version 4.3 Copyright (c) 2000-2020 the FFmpeg developers\n",
      "  built with gcc 7.3.0 (crosstool-NG 1.23.0.449-a04d0)\n",
      "  configuration: --prefix=/opt/conda/conda-bld/ffmpeg_1597178665428/_h_env_placehold_placehold_placehold_placehold_placehold_placehold_placehold_placehold_placehold_placehold_placehold_placehold_placehold_placehold_placehold_placehold_placehold_placehold_placehold_placehold_placeh --cc=/opt/conda/conda-bld/ffmpeg_1597178665428/_build_env/bin/x86_64-conda_cos6-linux-gnu-cc --disable-doc --disable-openssl --enable-avresample --enable-gnutls --enable-hardcoded-tables --enable-libfreetype --enable-libopenh264 --enable-pic --enable-pthreads --enable-shared --disable-static --enable-version3 --enable-zlib --enable-libmp3lame\n",
      "  libavutil      56. 51.100 / 56. 51.100\n",
      "  libavcodec     58. 91.100 / 58. 91.100\n",
      "  libavformat    58. 45.100 / 58. 45.100\n",
      "  libavdevice    58. 10.100 / 58. 10.100\n",
      "  libavfilter     7. 85.100 /  7. 85.100\n",
      "  libavresample   4.  0.  0 /  4.  0.  0\n",
      "  libswscale      5.  7.100 /  5.  7.100\n",
      "  libswresample   3.  7.100 /  3.  7.100\n",
      "Input #0, mov,mp4,m4a,3gp,3g2,mj2, from 'dataset/tbd/akhil1.m4a':\n",
      "  Metadata:\n",
      "    major_brand     : M4A \n",
      "    minor_version   : 0\n",
      "    compatible_brands: M4A isommp42\n",
      "    creation_time   : 2023-07-04T03:38:23.000000Z\n",
      "    title           : akhil1\n",
      "    voice-memo-uuid : 40184158-CAB0-4E38-8402-19BAE526E9E6\n",
      "    encoder         : com.apple.VoiceMemos (iPad Version 13.0.1 (Build 22A400))\n",
      "  Duration: 00:00:08.13, start: 0.000000, bitrate: 68 kb/s\n",
      "    Stream #0:0(und): Audio: aac (LC) (mp4a / 0x6134706D), 48000 Hz, mono, fltp, 62 kb/s (default)\n",
      "    Metadata:\n",
      "      creation_time   : 2023-07-04T03:38:23.000000Z\n",
      "      handler_name    : Core Media Audio\n",
      "Stream mapping:\n",
      "  Stream #0:0 -> #0:0 (aac (native) -> pcm_s16le (native))\n",
      "Press [q] to stop, [?] for help\n",
      "Output #0, wav, to 'dataset/tbd/a2.wav':\n",
      "  Metadata:\n",
      "    major_brand     : M4A \n",
      "    minor_version   : 0\n",
      "    compatible_brands: M4A isommp42\n",
      "    voice-memo-uuid : 40184158-CAB0-4E38-8402-19BAE526E9E6\n",
      "    INAM            : akhil1\n",
      "    ISFT            : Lavf58.45.100\n",
      "    Stream #0:0(und): Audio: pcm_s16le ([1][0][0][0] / 0x0001), 44100 Hz, stereo, s16, 1411 kb/s (default)\n",
      "    Metadata:\n",
      "      creation_time   : 2023-07-04T03:38:23.000000Z\n",
      "      handler_name    : Core Media Audio\n",
      "      encoder         : Lavc58.91.100 pcm_s16le\n",
      "size=    1411kB time=00:00:08.19 bitrate=1411.3kbits/s speed= 620x    \n",
      "video:0kB audio:1411kB subtitle:0kB other streams:0kB global headers:0kB muxing overhead: 0.006505%\n",
      "ffmpeg version 4.3 Copyright (c) 2000-2020 the FFmpeg developers\n",
      "  built with gcc 7.3.0 (crosstool-NG 1.23.0.449-a04d0)\n",
      "  configuration: --prefix=/opt/conda/conda-bld/ffmpeg_1597178665428/_h_env_placehold_placehold_placehold_placehold_placehold_placehold_placehold_placehold_placehold_placehold_placehold_placehold_placehold_placehold_placehold_placehold_placehold_placehold_placehold_placehold_placeh --cc=/opt/conda/conda-bld/ffmpeg_1597178665428/_build_env/bin/x86_64-conda_cos6-linux-gnu-cc --disable-doc --disable-openssl --enable-avresample --enable-gnutls --enable-hardcoded-tables --enable-libfreetype --enable-libopenh264 --enable-pic --enable-pthreads --enable-shared --disable-static --enable-version3 --enable-zlib --enable-libmp3lame\n",
      "  libavutil      56. 51.100 / 56. 51.100\n",
      "  libavcodec     58. 91.100 / 58. 91.100\n",
      "  libavformat    58. 45.100 / 58. 45.100\n",
      "  libavdevice    58. 10.100 / 58. 10.100\n",
      "  libavfilter     7. 85.100 /  7. 85.100\n",
      "  libavresample   4.  0.  0 /  4.  0.  0\n",
      "  libswscale      5.  7.100 /  5.  7.100\n",
      "  libswresample   3.  7.100 /  3.  7.100\n",
      "Input #0, mov,mp4,m4a,3gp,3g2,mj2, from 'dataset/tbd/vinnop1.m4a':\n",
      "  Metadata:\n",
      "    major_brand     : M4A \n",
      "    minor_version   : 0\n",
      "    compatible_brands: M4A isommp42\n",
      "    creation_time   : 2023-07-04T03:42:13.000000Z\n",
      "    title           : vinnop1\n",
      "    voice-memo-uuid : 341B003C-279A-4C64-802A-F76D1D5C4A07\n",
      "    encoder         : com.apple.VoiceMemos (iPad Version 13.0.1 (Build 22A400))\n",
      "  Duration: 00:00:05.39, start: 0.000000, bitrate: 72 kb/s\n",
      "    Stream #0:0(und): Audio: aac (LC) (mp4a / 0x6134706D), 48000 Hz, mono, fltp, 65 kb/s (default)\n",
      "    Metadata:\n",
      "      creation_time   : 2023-07-04T03:42:13.000000Z\n",
      "      handler_name    : Core Media Audio\n",
      "Stream mapping:\n",
      "  Stream #0:0 -> #0:0 (aac (native) -> pcm_s16le (native))\n",
      "Press [q] to stop, [?] for help\n",
      "Output #0, wav, to 'dataset/tbd/v1.wav':\n",
      "  Metadata:\n",
      "    major_brand     : M4A \n",
      "    minor_version   : 0\n",
      "    compatible_brands: M4A isommp42\n",
      "    voice-memo-uuid : 341B003C-279A-4C64-802A-F76D1D5C4A07\n",
      "    INAM            : vinnop1\n",
      "    ISFT            : Lavf58.45.100\n",
      "    Stream #0:0(und): Audio: pcm_s16le ([1][0][0][0] / 0x0001), 44100 Hz, stereo, s16, 1411 kb/s (default)\n",
      "    Metadata:\n",
      "      creation_time   : 2023-07-04T03:42:13.000000Z\n",
      "      handler_name    : Core Media Audio\n",
      "      encoder         : Lavc58.91.100 pcm_s16le\n",
      "size=     937kB time=00:00:05.44 bitrate=1411.3kbits/s speed= 528x    \n",
      "video:0kB audio:937kB subtitle:0kB other streams:0kB global headers:0kB muxing overhead: 0.009796%\n",
      "ffmpeg version 4.3 Copyright (c) 2000-2020 the FFmpeg developers\n",
      "  built with gcc 7.3.0 (crosstool-NG 1.23.0.449-a04d0)\n",
      "  configuration: --prefix=/opt/conda/conda-bld/ffmpeg_1597178665428/_h_env_placehold_placehold_placehold_placehold_placehold_placehold_placehold_placehold_placehold_placehold_placehold_placehold_placehold_placehold_placehold_placehold_placehold_placehold_placehold_placehold_placeh --cc=/opt/conda/conda-bld/ffmpeg_1597178665428/_build_env/bin/x86_64-conda_cos6-linux-gnu-cc --disable-doc --disable-openssl --enable-avresample --enable-gnutls --enable-hardcoded-tables --enable-libfreetype --enable-libopenh264 --enable-pic --enable-pthreads --enable-shared --disable-static --enable-version3 --enable-zlib --enable-libmp3lame\n",
      "  libavutil      56. 51.100 / 56. 51.100\n",
      "  libavcodec     58. 91.100 / 58. 91.100\n",
      "  libavformat    58. 45.100 / 58. 45.100\n",
      "  libavdevice    58. 10.100 / 58. 10.100\n",
      "  libavfilter     7. 85.100 /  7. 85.100\n",
      "  libavresample   4.  0.  0 /  4.  0.  0\n",
      "  libswscale      5.  7.100 /  5.  7.100\n",
      "  libswresample   3.  7.100 /  3.  7.100\n",
      "Input #0, mov,mp4,m4a,3gp,3g2,mj2, from 'dataset/tbd/vinoop2.m4a':\n",
      "  Metadata:\n",
      "    major_brand     : M4A \n",
      "    minor_version   : 0\n",
      "    compatible_brands: M4A isommp42\n",
      "    creation_time   : 2023-07-04T03:42:27.000000Z\n",
      "    title           : vinoop2\n",
      "    voice-memo-uuid : 5E3AB269-BA64-4DEB-BE01-594E899BE632\n",
      "    encoder         : com.apple.VoiceMemos (iPad Version 13.0.1 (Build 22A400))\n",
      "  Duration: 00:00:06.75, start: 0.000000, bitrate: 69 kb/s\n",
      "    Stream #0:0(und): Audio: aac (LC) (mp4a / 0x6134706D), 48000 Hz, mono, fltp, 63 kb/s (default)\n",
      "    Metadata:\n",
      "      creation_time   : 2023-07-04T03:42:27.000000Z\n",
      "      handler_name    : Core Media Audio\n",
      "Stream mapping:\n",
      "  Stream #0:0 -> #0:0 (aac (native) -> pcm_s16le (native))\n",
      "Press [q] to stop, [?] for help\n",
      "Output #0, wav, to 'dataset/tbd/v2.wav':\n",
      "  Metadata:\n",
      "    major_brand     : M4A \n",
      "    minor_version   : 0\n",
      "    compatible_brands: M4A isommp42\n",
      "    voice-memo-uuid : 5E3AB269-BA64-4DEB-BE01-594E899BE632\n",
      "    INAM            : vinoop2\n",
      "    ISFT            : Lavf58.45.100\n",
      "    Stream #0:0(und): Audio: pcm_s16le ([1][0][0][0] / 0x0001), 44100 Hz, stereo, s16, 1411 kb/s (default)\n",
      "    Metadata:\n",
      "      creation_time   : 2023-07-04T03:42:27.000000Z\n",
      "      handler_name    : Core Media Audio\n",
      "      encoder         : Lavc58.91.100 pcm_s16le\n",
      "size=    1172kB time=00:00:06.80 bitrate=1411.3kbits/s speed= 583x    \n",
      "video:0kB audio:1172kB subtitle:0kB other streams:0kB global headers:0kB muxing overhead: 0.007830%\n"
     ]
    }
   ],
   "source": [
    "import subprocess\n",
    "\n",
    "def convert_m4a_to_wav(input_file, output_file):\n",
    "    command = ['ffmpeg', '-i', input_file, '-acodec', 'pcm_s16le', '-ar', '44100', '-ac', '2', output_file]\n",
    "    subprocess.call(command)\n",
    "\n",
    "# Usage example\n",
    "input_file = 'dataset/tbd/test2.m4a'\n",
    "output_file = 'dataset/tbd/n2.wav'\n",
    "convert_m4a_to_wav(input_file, output_file)\n",
    "\n",
    "input_file = 'dataset/tbd/test1.m4a'\n",
    "output_file = 'dataset/tbd/n1.wav'\n",
    "convert_m4a_to_wav(input_file, output_file)\n",
    "\n",
    "input_file = 'dataset/tbd/akhil1.m4a'\n",
    "output_file = 'dataset/tbd/a1.wav'\n",
    "convert_m4a_to_wav(input_file, output_file)\n",
    "\n",
    "input_file = 'dataset/tbd/akhil1.m4a'\n",
    "output_file = 'dataset/tbd/a2.wav'\n",
    "convert_m4a_to_wav(input_file, output_file)\n",
    "\n",
    "input_file = 'dataset/tbd/vinnop1.m4a'\n",
    "output_file = 'dataset/tbd/v1.wav'\n",
    "convert_m4a_to_wav(input_file, output_file)\n",
    "\n",
    "input_file = 'dataset/tbd/vinoop2.m4a'\n",
    "output_file = 'dataset/tbd/v2.wav'\n",
    "convert_m4a_to_wav(input_file, output_file)"
   ]
  },
  {
   "attachments": {},
   "cell_type": "markdown",
   "metadata": {},
   "source": [
    "# Save embeddings"
   ]
  },
  {
   "cell_type": "code",
   "execution_count": 29,
   "metadata": {},
   "outputs": [],
   "source": [
    "# Example usage\n",
    "directory_path = 'dataset/dat/'\n",
    "embedding_dict_1 = {}\n",
    "embedding_dict_2 = {}\n",
    "\n",
    "for root, dirs, files in os.walk(directory_path):\n",
    "        for file_name in files:\n",
    "            if \"1\" in file_name and \".wav\" in file_name:\n",
    "                file_path = os.path.join(root, file_name)\n",
    "                embedding1 = inference(file_path)\n",
    "                embedding1 = embedding1.reshape(1,512)\n",
    "                embedding_dict_1[file_name] = embedding1\n",
    "                \n",
    "for root, dirs, files in os.walk(directory_path):\n",
    "        for file_name in files:\n",
    "            if \"2\" in file_name and \".wav\" in file_name:\n",
    "                file_path = os.path.join(root, file_name)\n",
    "                embedding1 = inference(file_path)\n",
    "                embedding1 = embedding1.reshape(1,512)\n",
    "                embedding_dict_2[file_name] = embedding1"
   ]
  },
  {
   "cell_type": "code",
   "execution_count": null,
   "metadata": {},
   "outputs": [],
   "source": []
  },
  {
   "attachments": {},
   "cell_type": "markdown",
   "metadata": {},
   "source": [
    "# Test"
   ]
  },
  {
   "cell_type": "code",
   "execution_count": 42,
   "metadata": {},
   "outputs": [
    {
     "name": "stdout",
     "output_type": "stream",
     "text": [
      "\n",
      "For v1.wav\n",
      "----------- \n",
      "\n",
      "Distance with kshitij_2.wav is \t\t [[0.83540551]]\n",
      "Distance with v2.wav is \t\t [[0.45263119]]\n",
      "Distance with ninad_2.wav is \t\t [[0.80595515]]\n",
      "Distance with rahul_2.wav is \t\t [[0.84465358]]\n",
      "Distance with a2.wav is \t\t [[0.83884068]]\n",
      "Distance with sougato_2.wav is \t\t [[0.86125886]]\n",
      "Distance with smit_2.wav is \t\t [[0.84391713]]\n",
      "Distance with steven_2.wav is \t\t [[0.89682833]]\n",
      "\n",
      "v1.wav -> v2.wav : \t\t [[0.45263119]]\n",
      "\n",
      "For kshitij_1.wav\n",
      "----------- \n",
      "\n",
      "Distance with kshitij_2.wav is \t\t [[0.60268838]]\n",
      "Distance with v2.wav is \t\t [[0.75050098]]\n",
      "Distance with ninad_2.wav is \t\t [[0.78902336]]\n",
      "Distance with rahul_2.wav is \t\t [[0.93362352]]\n",
      "Distance with a2.wav is \t\t [[0.8955035]]\n",
      "Distance with sougato_2.wav is \t\t [[0.8104183]]\n",
      "Distance with smit_2.wav is \t\t [[0.88873408]]\n",
      "Distance with steven_2.wav is \t\t [[0.82589953]]\n",
      "\n",
      "kshitij_1.wav -> kshitij_2.wav : \t\t [[0.60268838]]\n",
      "\n",
      "For smit_1.wav\n",
      "----------- \n",
      "\n",
      "Distance with kshitij_2.wav is \t\t [[0.85314586]]\n",
      "Distance with v2.wav is \t\t [[0.81660534]]\n",
      "Distance with ninad_2.wav is \t\t [[0.93982658]]\n",
      "Distance with rahul_2.wav is \t\t [[0.97802256]]\n",
      "Distance with a2.wav is \t\t [[1.01118036]]\n",
      "Distance with sougato_2.wav is \t\t [[0.91540628]]\n",
      "Distance with smit_2.wav is \t\t [[0.58763389]]\n",
      "Distance with steven_2.wav is \t\t [[0.91369989]]\n",
      "\n",
      "smit_1.wav -> smit_2.wav : \t\t [[0.58763389]]\n",
      "\n",
      "For a1.wav\n",
      "----------- \n",
      "\n",
      "Distance with kshitij_2.wav is \t\t [[0.84308535]]\n",
      "Distance with v2.wav is \t\t [[0.81370456]]\n",
      "Distance with ninad_2.wav is \t\t [[0.75322893]]\n",
      "Distance with rahul_2.wav is \t\t [[0.72070713]]\n",
      "Distance with a2.wav is \t\t [[0.]]\n",
      "Distance with sougato_2.wav is \t\t [[0.79864488]]\n",
      "Distance with smit_2.wav is \t\t [[0.8980233]]\n",
      "Distance with steven_2.wav is \t\t [[0.98205983]]\n",
      "\n",
      "a1.wav -> a2.wav : \t\t [[0.]]\n",
      "\n",
      "For steven_1.wav\n",
      "----------- \n",
      "\n",
      "Distance with kshitij_2.wav is \t\t [[0.73227962]]\n",
      "Distance with v2.wav is \t\t [[0.96060394]]\n",
      "Distance with ninad_2.wav is \t\t [[0.90386356]]\n",
      "Distance with rahul_2.wav is \t\t [[0.70624727]]\n",
      "Distance with a2.wav is \t\t [[0.94631487]]\n",
      "Distance with sougato_2.wav is \t\t [[0.81713248]]\n",
      "Distance with smit_2.wav is \t\t [[0.79125308]]\n",
      "Distance with steven_2.wav is \t\t [[0.55860715]]\n",
      "\n",
      "steven_1.wav -> steven_2.wav : \t\t [[0.55860715]]\n",
      "\n",
      "For sougato_1.wav\n",
      "----------- \n",
      "\n",
      "Distance with kshitij_2.wav is \t\t [[0.75885306]]\n",
      "Distance with v2.wav is \t\t [[0.82687962]]\n",
      "Distance with ninad_2.wav is \t\t [[0.873721]]\n",
      "Distance with rahul_2.wav is \t\t [[0.89531933]]\n",
      "Distance with a2.wav is \t\t [[0.98424171]]\n",
      "Distance with sougato_2.wav is \t\t [[0.61007686]]\n",
      "Distance with smit_2.wav is \t\t [[0.83969308]]\n",
      "Distance with steven_2.wav is \t\t [[0.86417441]]\n",
      "\n",
      "sougato_1.wav -> sougato_2.wav : \t\t [[0.61007686]]\n",
      "\n",
      "For rahul_1.wav\n",
      "----------- \n",
      "\n",
      "Distance with kshitij_2.wav is \t\t [[0.66633016]]\n",
      "Distance with v2.wav is \t\t [[0.76054612]]\n",
      "Distance with ninad_2.wav is \t\t [[0.71700075]]\n",
      "Distance with rahul_2.wav is \t\t [[0.5945839]]\n",
      "Distance with a2.wav is \t\t [[0.73863625]]\n",
      "Distance with sougato_2.wav is \t\t [[0.80729954]]\n",
      "Distance with smit_2.wav is \t\t [[0.80662451]]\n",
      "Distance with steven_2.wav is \t\t [[0.82048476]]\n",
      "\n",
      "rahul_1.wav -> rahul_2.wav : \t\t [[0.5945839]]\n",
      "\n",
      "For ninad_1.wav\n",
      "----------- \n",
      "\n",
      "Distance with kshitij_2.wav is \t\t [[0.72952923]]\n",
      "Distance with v2.wav is \t\t [[0.85449708]]\n",
      "Distance with ninad_2.wav is \t\t [[0.66821348]]\n",
      "Distance with rahul_2.wav is \t\t [[0.783414]]\n",
      "Distance with a2.wav is \t\t [[0.74346956]]\n",
      "Distance with sougato_2.wav is \t\t [[0.86190596]]\n",
      "Distance with smit_2.wav is \t\t [[0.9211651]]\n",
      "Distance with steven_2.wav is \t\t [[0.91075671]]\n",
      "\n",
      "ninad_1.wav -> ninad_2.wav : \t\t [[0.66821348]]\n"
     ]
    }
   ],
   "source": [
    "for key , emb in embedding_dict_1.items():\n",
    "    min_val = 100\n",
    "    match = None\n",
    "    \n",
    "    print(f'\\nFor {key}')\n",
    "    print(\"----------- \\n\")\n",
    "    for key2, emb2 in embedding_dict_2.items():\n",
    "        distance = cdist(emb, emb2, metric=\"cosine\")\n",
    "        if min_val > float(distance):\n",
    "            match = key2\n",
    "            min_val = distance\n",
    "        print(f'Distance with {key2} is \\t\\t {distance}')\n",
    "        \n",
    "    print (f'\\n{key} -> {match} : \\t\\t {min_val}')\n",
    "    "
   ]
  },
  {
   "cell_type": "code",
   "execution_count": null,
   "metadata": {},
   "outputs": [],
   "source": []
  },
  {
   "cell_type": "code",
   "execution_count": null,
   "metadata": {},
   "outputs": [],
   "source": []
  },
  {
   "cell_type": "code",
   "execution_count": 32,
   "metadata": {},
   "outputs": [
    {
     "data": {
      "text/plain": [
       "array([[0.45263119]])"
      ]
     },
     "execution_count": 32,
     "metadata": {},
     "output_type": "execute_result"
    }
   ],
   "source": [
    "\n",
    "distance = cdist(embedding_dict_1[\"v1.wav\"], embedding_dict_2[\"v2.wav\"], metric=\"cosine\")\n",
    "distance"
   ]
  },
  {
   "cell_type": "code",
   "execution_count": 27,
   "metadata": {},
   "outputs": [
    {
     "data": {
      "text/plain": [
       "array([[0.45263119]])"
      ]
     },
     "execution_count": 27,
     "metadata": {},
     "output_type": "execute_result"
    }
   ],
   "source": [
    "path_1 = \"dataset/dat/v1.wav\"\n",
    "path_2 = \"dataset/dat/v2.wav\"\n",
    "\n",
    "embedding1 = inference(path_1)\n",
    "embedding2 = inference(path_2)\n",
    "\n",
    "embedding1 = embedding1.reshape(1,512)\n",
    "embedding2 = embedding2.reshape(1,512)\n",
    "\n",
    "distance = cdist(embedding1, embedding2, metric=\"cosine\")\n",
    "distance"
   ]
  },
  {
   "attachments": {},
   "cell_type": "markdown",
   "metadata": {},
   "source": [
    "Store Embeddings of all voices based on test voice"
   ]
  },
  {
   "cell_type": "code",
   "execution_count": 37,
   "metadata": {},
   "outputs": [],
   "source": [
    "directory = 'VIDTIMIT'\n",
    "labels = [name for name in os.listdir(directory) if os.path.isdir(os.path.join(directory, name))]\n",
    "embeddings = {}\n",
    "\n",
    "for label in labels:\n",
    "    audio_path = f\"{directory}/{label}/audio/sa1.wav\"\n",
    "    embedding = inference(audio_path).reshape(1,512)\n",
    "    embeddings[label] = embedding"
   ]
  },
  {
   "cell_type": "code",
   "execution_count": 50,
   "metadata": {},
   "outputs": [
    {
     "name": "stdout",
     "output_type": "stream",
     "text": [
      "fgjd0  ->  fgjd0  : cosine dist : [[0.55651954]]\n",
      "mtas1  ->  mtas1  : cosine dist : [[0.54014845]]\n",
      "fram1  ->  fram1  : cosine dist : [[0.45948952]]\n",
      "fcft0  ->  fcft0  : cosine dist : [[0.42452628]]\n",
      "mjar0  ->  mjar0  : cosine dist : [[0.43316354]]\n",
      "mstk0  ->  mstk0  : cosine dist : [[0.52967133]]\n",
      "fjem0  ->  fjem0  : cosine dist : [[0.51770773]]\n",
      "mabw0  ->  mabw0  : cosine dist : [[0.50771203]]\n",
      "mccs0  ->  mccs0  : cosine dist : [[0.34471623]]\n",
      "fdrd1  ->  fdrd1  : cosine dist : [[0.65763457]]\n",
      "fjwb0  ->  fjwb0  : cosine dist : [[0.45850801]]\n",
      "mbdg0  ->  mbdg0  : cosine dist : [[0.43197923]]\n",
      "mdld0  ->  mdld0  : cosine dist : [[0.44568772]]\n",
      "fjre0  ->  fjre0  : cosine dist : [[0.46684462]]\n",
      "mrgg0  ->  mrgg0  : cosine dist : [[0.39163365]]\n",
      "fadg0  ->  fadg0  : cosine dist : [[0.52232371]]\n",
      "fdms0  ->  fdms0  : cosine dist : [[0.49582067]]\n",
      "mrjo0  ->  mrjo0  : cosine dist : [[0.64158947]]\n",
      "mmdm2  ->  mmdm2  : cosine dist : [[0.50485464]]\n",
      "fcrh0  ->  fcrh0  : cosine dist : [[0.50851035]]\n",
      "fedw0  ->  fedw0  : cosine dist : [[0.54519742]]\n",
      "msjs1  ->  msjs1  : cosine dist : [[0.45000509]]\n",
      "felc0  ->  felc0  : cosine dist : [[0.36660879]]\n",
      "mcem0  ->  mcem0  : cosine dist : [[0.51038533]]\n",
      "faks0  ->  faks0  : cosine dist : [[0.56521563]]\n",
      "fpkt0  ->  fpkt0  : cosine dist : [[0.57330625]]\n",
      "mbjk0  ->  mbjk0  : cosine dist : [[0.40414086]]\n",
      "mdab0  ->  mdab0  : cosine dist : [[0.32269137]]\n",
      "mgwt0  ->  mgwt0  : cosine dist : [[0.5246204]]\n",
      "mjsw0  ->  mjsw0  : cosine dist : [[0.49420901]]\n",
      "mreb0  ->  mreb0  : cosine dist : [[0.49069505]]\n",
      "mrcz0  ->  mrcz0  : cosine dist : [[0.52246296]]\n",
      "mtmr0  ->  mtmr0  : cosine dist : [[0.50370236]]\n",
      "fdac1  ->  fdac1  : cosine dist : [[0.63480961]]\n",
      "fcmr0  ->  fcmr0  : cosine dist : [[0.39049379]]\n",
      "mmdb1  ->  mmdb1  : cosine dist : [[0.37594258]]\n",
      "mdbb0  ->  mdbb0  : cosine dist : [[0.59152853]]\n",
      "fjas0  ->  fjas0  : cosine dist : [[0.57057755]]\n",
      "mpdf0  ->  mpdf0  : cosine dist : [[0.5128233]]\n",
      "mwbt0  ->  mwbt0  : cosine dist : [[0.50556717]]\n",
      "fkms0  ->  fkms0  : cosine dist : [[0.48806942]]\n",
      "fcmh0  ->  fcmh0  : cosine dist : [[0.48984543]]\n",
      "mpgl0  ->  mpgl0  : cosine dist : [[0.48425966]]\n",
      "--------------------------------------------------\n",
      "--------------------------------------------------\n",
      "Accuracy is : 100.0 %\n",
      "--------------------------------------------------\n",
      "--------------------------------------------------\n"
     ]
    }
   ],
   "source": [
    "correct_detection_count = 0\n",
    "for label in labels:\n",
    "    curr_emd = inference(f\"{directory}/{label}/audio/sa2.wav\").reshape(1,512)\n",
    "    min_dist = 10\n",
    "    match_label = -1\n",
    "    for test_label, test_embd in embeddings.items():\n",
    "        distance = cdist(curr_emd, test_embd, metric=\"cosine\")\n",
    "        if distance <= min_dist :\n",
    "            match_label = test_label\n",
    "            min_dist = distance\n",
    "    print(label ,\" -> \", match_label, \" : cosine dist :\" , min_dist)\n",
    "    if match_label == label:\n",
    "        correct_detection_count += 1\n",
    "accuracy = correct_detection_count/ 43\n",
    "print(\"-\"*50)\n",
    "print(\"-\"*50)\n",
    "print(\"Accuracy is :\" , accuracy*100 , \"%\" )  \n",
    "print(\"-\"*50)\n",
    "print(\"-\"*50)    "
   ]
  },
  {
   "attachments": {},
   "cell_type": "markdown",
   "metadata": {},
   "source": [
    "# Observation"
   ]
  },
  {
   "attachments": {},
   "cell_type": "markdown",
   "metadata": {},
   "source": [
    "Embedding extracted by pyannote are good enough to do speaker recognition and as can be seen accuracy is 100%"
   ]
  },
  {
   "cell_type": "markdown",
   "metadata": {},
   "source": []
  }
 ],
 "metadata": {
  "kernelspec": {
   "display_name": "bio",
   "language": "python",
   "name": "python3"
  },
  "language_info": {
   "codemirror_mode": {
    "name": "ipython",
    "version": 3
   },
   "file_extension": ".py",
   "mimetype": "text/x-python",
   "name": "python",
   "nbconvert_exporter": "python",
   "pygments_lexer": "ipython3",
   "version": "3.11.3"
  },
  "orig_nbformat": 4
 },
 "nbformat": 4,
 "nbformat_minor": 2
}
